<?xml version="1.0" encoding="utf-8"?>
<!-- Generator: Adobe Illustrator 24.0.2, SVG Export Plug-In . SVG Version: 6.00 Build 0)  -->
<svg version="1.1" id="Layer_1" xmlns="http://www.w3.org/2000/svg" xmlns:xlink="http://www.w3.org/1999/xlink" x="0px" y="0px"
	 viewBox="0 0 1659 1666.7" style="enable-background:new 0 0 1659 1666.7;" xml:space="preserve">
<style type="text/css">
	.st0{fill:#1E8BC3;}
	.st1{fill-rule:evenodd;clip-rule:evenodd;fill:#FF6500;}
</style>
<g>
	<path class="st0" d="M508.6,863.8l243.1,243.1c20.3,20.4,47.4,31.6,76.1,31.6c28.8,0,55.8-11.2,76.2-31.6l584.4-584.6
		c20.4-20.4,31.6-47.4,31.6-76.2c0-28.8-11.2-55.8-31.6-76.2c-20.3-20.4-47.4-31.6-76.2-31.6c-28.8,0-55.8,11.2-76.1,31.6
		L843.3,862.9l-4,4c-6.3,6.3-16.6,6.3-23,0l-4-4L660.9,711.5c-20.4-20.4-47.4-31.6-76.2-31.6c-28.8,0-55.8,11.2-76.1,31.6
		c-20.4,20.4-31.6,47.4-31.6,76.2C477,816.4,488.2,843.4,508.6,863.8z"/>
</g>
<g>
	<path class="st1" d="M1536.5,824.8c0-0.9,0-1.9,0-2.8c0-1.8-0.1-3.6-0.1-5.4c0-1,0-2.1-0.1-3.1c-0.1-2-0.1-3.9-0.2-5.9
		c0-1.2-0.1-2.4-0.1-3.5c-0.1-2.1-0.2-4.2-0.3-6.3c-0.1-1.3-0.1-2.5-0.2-3.8c-0.1-1.4-0.2-2.8-0.2-4.2c-0.1-1.4-0.2-2.7-0.3-4.1
		c-0.1-1.3-0.2-2.5-0.3-3.8c-0.2-2.7-0.4-5.4-0.6-8.1c-0.1-1-0.2-1.9-0.2-2.9c-0.1-1.6-0.3-3.3-0.4-4.9c-0.1-0.9-0.2-1.9-0.3-2.8
		c-0.2-1.7-0.3-3.4-0.5-5.1c-0.1-0.7-0.2-1.4-0.2-2.2c-0.6-6-1.4-12-2.2-17.9c-0.1-0.4-0.1-0.8-0.2-1.2c-0.3-2-0.6-4-0.8-6.1
		c0-0.2-0.1-0.4-0.1-0.7c-6.9-47.3-18.4-93.1-34.1-136.9l-147.9,147.9c2.7,15.5,4.8,31.3,6.1,47.3c0,0.3,0.1,0.7,0.1,1
		c0.2,2.6,0.4,5.2,0.6,7.8c0,0.2,0,0.4,0,0.6c0.2,2.9,0.4,5.7,0.5,8.6c0,0,0,0,0,0c0.1,2.7,0.2,5.3,0.3,8c0,0.7,0,1.3,0.1,2
		c0.1,2.1,0.1,4.2,0.2,6.4c0,0.7,0,1.4,0,2.1c0,2.7,0.1,5.4,0.1,8.1c0,2.8,0,5.5-0.1,8.3c0,0.7,0,1.4,0,2.1c0,2.2-0.1,4.5-0.2,6.7
		c0,0.6,0,1.2-0.1,1.8c-0.2,5.7-0.5,11.3-0.9,17c0,0.4-0.1,0.8-0.1,1.2c-0.2,2.6-0.4,5.2-0.6,7.8c0,0.2,0,0.4-0.1,0.7
		c-0.5,5.9-1.1,11.7-1.8,17.5c0,0.1,0,0.2,0,0.3c-20.1,168.6-119.5,312.8-259.7,393.9c0,0,0,0,0,0.1c-77.1,44.6-166.6,70.1-262,70.1
		c-100.9,0-195.2-28.6-275.2-78.1c0,0,0-0.1,0-0.1c-138.3-85.5-234.1-233.4-248.4-404.7c0-0.3-0.1-0.7-0.1-1
		c-0.2-2.6-0.4-5.2-0.6-7.8c0-0.2,0-0.4,0-0.6c-0.2-2.9-0.4-5.7-0.5-8.6c0,0,0,0,0,0c-0.1-2.7-0.2-5.3-0.3-8c0-0.7,0-1.3-0.1-2
		c-0.1-2.1-0.1-4.2-0.2-6.4c0-0.7,0-1.4,0-2.1c0-2.7-0.1-5.4-0.1-8.1c0-2.8,0-5.5,0.1-8.3c0-0.7,0-1.4,0-2.1c0-2.2,0.1-4.5,0.2-6.7
		c0-0.6,0-1.2,0.1-1.8c0.2-5.7,0.5-11.3,0.9-17c0-0.4,0.1-0.8,0.1-1.2c0.2-2.6,0.4-5.2,0.6-7.8c0-0.2,0-0.4,0.1-0.7
		c0.5-5.9,1.1-11.7,1.8-17.5c0-0.1,0-0.2,0-0.3c20.1-168.6,119.5-312.8,259.7-393.9c0,0,0,0,0-0.1c77.1-44.6,166.6-70.1,262-70.1
		c100.9,0,195.2,28.6,275.2,78.1c0,0,0,0.1,0,0.1c28.3,17.5,54.9,37.7,79.3,60.1l113.2-113.2c5.1-5.1,10.6-9.9,16.3-14.3
		c-126.5-119.2-296.7-192.2-484-192.2c-352.4,0-644.5,258.5-698.1,596.7c0,0.2-0.1,0.4-0.1,0.5c-0.3,2.1-0.7,4.3-1,6.5
		c0,0.2-0.1,0.4-0.1,0.5c-0.9,6.3-1.8,12.7-2.6,19.1c-0.1,0.5-0.1,1.1-0.2,1.6c-0.2,1.8-0.4,3.6-0.6,5.5c-0.1,0.8-0.2,1.6-0.3,2.4
		c-0.2,1.8-0.4,3.5-0.5,5.3c-0.1,0.7-0.1,1.4-0.2,2.2c-0.3,3.2-0.6,6.3-0.8,9.5c-0.1,1-0.2,2-0.2,3c-0.1,1.5-0.2,3-0.3,4.5
		c-0.1,1.2-0.2,2.4-0.3,3.7c-0.1,1.4-0.2,2.8-0.3,4.3c-0.1,1.4-0.2,2.8-0.2,4.2c-0.1,1.3-0.1,2.5-0.2,3.8c-0.1,2.5-0.2,5-0.3,7.5
		c0,1-0.1,2.1-0.1,3.1c-0.1,1.7-0.1,3.5-0.2,5.2c0,1.1-0.1,2.2-0.1,3.3c0,1.8-0.1,3.6-0.1,5.3c0,1,0,1.9,0,2.9c0,2.6,0,5.3,0,7.9
		c0,0.1,0,0.2,0,0.3c0,0,0,0,0,0c0,0,0,0,0,0c0,0.1,0,0.2,0,0.2c0,2.6,0,5.3,0,7.9c0,0.9,0,1.9,0,2.8c0,1.8,0.1,3.6,0.1,5.4
		c0,1,0,2.1,0.1,3.1c0.1,2,0.1,3.9,0.2,5.9c0,1.2,0.1,2.4,0.1,3.5c0.1,2.1,0.2,4.2,0.3,6.3c0.1,1.3,0.1,2.5,0.2,3.8
		c0.1,1.4,0.2,2.8,0.2,4.2c0.1,1.4,0.2,2.7,0.3,4.1c0.1,1.3,0.2,2.5,0.3,3.8c0.2,2.7,0.4,5.4,0.6,8.1c0.1,1,0.2,1.9,0.2,2.9
		c0.1,1.6,0.3,3.3,0.4,4.9c0.1,0.9,0.2,1.9,0.3,2.8c0.2,1.7,0.3,3.4,0.5,5.1c0.1,0.7,0.2,1.4,0.2,2.2c0.6,6,1.4,12,2.2,17.9
		c0.1,0.4,0.1,0.8,0.2,1.2c0.3,2,0.6,4.1,0.8,6.1c0,0.2,0.1,0.4,0.1,0.7c49.7,342.7,343.9,605.9,699.5,605.9
		c352.4,0,644.5-258.5,698.1-596.7c0-0.2,0.1-0.4,0.1-0.5c0.3-2.1,0.7-4.3,1-6.5c0-0.2,0.1-0.4,0.1-0.5c0.9-6.3,1.8-12.7,2.6-19.1
		c0.1-0.5,0.1-1.1,0.2-1.6c0.2-1.8,0.4-3.6,0.6-5.5c0.1-0.8,0.2-1.6,0.3-2.4c0.2-1.8,0.4-3.5,0.5-5.3c0.1-0.7,0.1-1.4,0.2-2.2
		c0.3-3.2,0.6-6.4,0.8-9.5c0.1-1,0.2-2,0.2-3c0.1-1.5,0.2-3,0.3-4.5c0.1-1.2,0.2-2.4,0.3-3.7c0.1-1.4,0.2-2.8,0.3-4.3
		c0.1-1.4,0.2-2.8,0.2-4.2c0.1-1.3,0.1-2.5,0.2-3.8c0.1-2.5,0.2-5,0.3-7.5c0-1,0.1-2.1,0.1-3.1c0.1-1.7,0.1-3.5,0.2-5.2
		c0-1.1,0.1-2.2,0.1-3.3c0-1.8,0.1-3.6,0.1-5.3c0-1,0-1.9,0-2.9c0-2.6,0-5.3,0.1-7.9c0-0.1,0-0.2,0-0.3c0,0,0,0,0,0c0,0,0,0,0,0
		c0-0.1,0-0.2,0-0.2C1536.5,830.1,1536.5,827.5,1536.5,824.8z"/>
</g>
</svg>
